<mxfile host="Electron" agent="Mozilla/5.0 (X11; Linux x86_64) AppleWebKit/537.36 (KHTML, like Gecko) draw.io/27.0.9 Chrome/134.0.6998.205 Electron/35.4.0 Safari/537.36" version="27.0.9" pages="3">
  <diagram id="AzjxXNkzqyozSWthbDyI" name="Use Case">
    <mxGraphModel dx="1426" dy="892" grid="1" gridSize="10" guides="1" tooltips="1" connect="1" arrows="1" fold="1" page="1" pageScale="1" pageWidth="827" pageHeight="1169" math="0" shadow="0">
      <root>
        <mxCell id="0" />
        <mxCell id="1" parent="0" />
        <mxCell id="22QkG0PA7Bmm-pPr16Uh-2" value="" style="shape=ext;double=1;rounded=0;whiteSpace=wrap;html=1;" parent="1" vertex="1">
          <mxGeometry x="294" y="20" width="386" height="1060" as="geometry" />
        </mxCell>
        <mxCell id="22QkG0PA7Bmm-pPr16Uh-3" value="User" style="shape=umlActor;verticalLabelPosition=bottom;verticalAlign=top;html=1;" parent="1" vertex="1">
          <mxGeometry x="154" y="510" width="30" height="60" as="geometry" />
        </mxCell>
        <mxCell id="22QkG0PA7Bmm-pPr16Uh-5" value="Admin" style="shape=umlActor;verticalLabelPosition=bottom;verticalAlign=top;html=1;" parent="1" vertex="1">
          <mxGeometry x="154" y="840" width="30" height="60" as="geometry" />
        </mxCell>
        <mxCell id="22QkG0PA7Bmm-pPr16Uh-6" value="Extends" style="endArrow=block;endSize=16;endFill=0;html=1;rounded=0;" parent="1" edge="1">
          <mxGeometry width="160" relative="1" as="geometry">
            <mxPoint x="144" y="870" as="sourcePoint" />
            <mxPoint x="144" y="540" as="targetPoint" />
            <Array as="points">
              <mxPoint x="104" y="870" />
              <mxPoint x="104" y="540" />
            </Array>
          </mxGeometry>
        </mxCell>
        <mxCell id="22QkG0PA7Bmm-pPr16Uh-7" value="Only talk prompts" style="ellipse;whiteSpace=wrap;html=1;" parent="1" vertex="1">
          <mxGeometry x="338" y="420" width="160" height="50" as="geometry" />
        </mxCell>
        <mxCell id="22QkG0PA7Bmm-pPr16Uh-9" value="" style="endArrow=classic;html=1;rounded=0;entryX=0;entryY=0.5;entryDx=0;entryDy=0;" parent="1" target="22QkG0PA7Bmm-pPr16Uh-7" edge="1">
          <mxGeometry width="50" height="50" relative="1" as="geometry">
            <mxPoint x="204" y="530" as="sourcePoint" />
            <mxPoint x="274" y="660" as="targetPoint" />
          </mxGeometry>
        </mxCell>
        <mxCell id="22QkG0PA7Bmm-pPr16Uh-10" value="Manage Users" style="ellipse;whiteSpace=wrap;html=1;" parent="1" vertex="1">
          <mxGeometry x="334" y="810" width="160" height="50" as="geometry" />
        </mxCell>
        <mxCell id="22QkG0PA7Bmm-pPr16Uh-11" value="" style="endArrow=classic;html=1;rounded=0;entryX=0;entryY=0.5;entryDx=0;entryDy=0;" parent="1" target="22QkG0PA7Bmm-pPr16Uh-10" edge="1">
          <mxGeometry width="50" height="50" relative="1" as="geometry">
            <mxPoint x="200" y="860" as="sourcePoint" />
            <mxPoint x="274" y="810" as="targetPoint" />
          </mxGeometry>
        </mxCell>
        <mxCell id="22QkG0PA7Bmm-pPr16Uh-14" value="Manage Shopping List Market groups" style="ellipse;whiteSpace=wrap;html=1;" parent="1" vertex="1">
          <mxGeometry x="404" y="880" width="257" height="60" as="geometry" />
        </mxCell>
        <mxCell id="22QkG0PA7Bmm-pPr16Uh-15" value="" style="endArrow=classic;html=1;rounded=0;entryX=0;entryY=0.5;entryDx=0;entryDy=0;" parent="1" target="22QkG0PA7Bmm-pPr16Uh-14" edge="1">
          <mxGeometry width="50" height="50" relative="1" as="geometry">
            <mxPoint x="200" y="890" as="sourcePoint" />
            <mxPoint x="524" y="870" as="targetPoint" />
          </mxGeometry>
        </mxCell>
        <mxCell id="22QkG0PA7Bmm-pPr16Uh-19" value="Manage Shopping Lists" style="ellipse;whiteSpace=wrap;html=1;" parent="1" vertex="1">
          <mxGeometry x="474" y="470" width="160" height="50" as="geometry" />
        </mxCell>
        <mxCell id="22QkG0PA7Bmm-pPr16Uh-20" value="Manage Timers" style="ellipse;whiteSpace=wrap;html=1;" parent="1" vertex="1">
          <mxGeometry x="338" y="540" width="160" height="50" as="geometry" />
        </mxCell>
        <mxCell id="22QkG0PA7Bmm-pPr16Uh-21" value="" style="endArrow=classic;html=1;rounded=0;entryX=0;entryY=0.5;entryDx=0;entryDy=0;" parent="1" target="22QkG0PA7Bmm-pPr16Uh-19" edge="1">
          <mxGeometry width="50" height="50" relative="1" as="geometry">
            <mxPoint x="204" y="550" as="sourcePoint" />
            <mxPoint x="284" y="520" as="targetPoint" />
          </mxGeometry>
        </mxCell>
        <mxCell id="22QkG0PA7Bmm-pPr16Uh-22" value="Manage Schedules" style="ellipse;whiteSpace=wrap;html=1;" parent="1" vertex="1">
          <mxGeometry x="474" y="600" width="160" height="50" as="geometry" />
        </mxCell>
        <mxCell id="22QkG0PA7Bmm-pPr16Uh-23" value="" style="endArrow=classic;html=1;rounded=0;entryX=0;entryY=0.5;entryDx=0;entryDy=0;" parent="1" target="22QkG0PA7Bmm-pPr16Uh-20" edge="1">
          <mxGeometry width="50" height="50" relative="1" as="geometry">
            <mxPoint x="204" y="570" as="sourcePoint" />
            <mxPoint x="274" y="580" as="targetPoint" />
          </mxGeometry>
        </mxCell>
        <mxCell id="22QkG0PA7Bmm-pPr16Uh-24" value="" style="endArrow=classic;html=1;rounded=0;entryX=0;entryY=0.5;entryDx=0;entryDy=0;" parent="1" target="22QkG0PA7Bmm-pPr16Uh-22" edge="1">
          <mxGeometry width="50" height="50" relative="1" as="geometry">
            <mxPoint x="204" y="590" as="sourcePoint" />
            <mxPoint x="254" y="620" as="targetPoint" />
          </mxGeometry>
        </mxCell>
        <mxCell id="22QkG0PA7Bmm-pPr16Uh-25" value="Operate Home Assistant Devices" style="ellipse;whiteSpace=wrap;html=1;" parent="1" vertex="1">
          <mxGeometry x="318.5" y="80" width="160" height="50" as="geometry" />
        </mxCell>
        <mxCell id="22QkG0PA7Bmm-pPr16Uh-26" value="" style="endArrow=classic;html=1;rounded=0;entryX=0.015;entryY=0.683;entryDx=0;entryDy=0;entryPerimeter=0;" parent="1" target="22QkG0PA7Bmm-pPr16Uh-25" edge="1">
          <mxGeometry width="50" height="50" relative="1" as="geometry">
            <mxPoint x="200" y="440" as="sourcePoint" />
            <mxPoint x="254" y="450" as="targetPoint" />
          </mxGeometry>
        </mxCell>
        <mxCell id="22QkG0PA7Bmm-pPr16Uh-27" value="Climate Devices" style="ellipse;whiteSpace=wrap;html=1;" parent="1" vertex="1">
          <mxGeometry x="308.5" y="190" width="127" height="40" as="geometry" />
        </mxCell>
        <mxCell id="22QkG0PA7Bmm-pPr16Uh-28" value="Turn On/Off Devices" style="ellipse;whiteSpace=wrap;html=1;" parent="1" vertex="1">
          <mxGeometry x="538.5" y="140" width="127" height="40" as="geometry" />
        </mxCell>
        <mxCell id="22QkG0PA7Bmm-pPr16Uh-29" value="Change Ilumination Profile" style="ellipse;whiteSpace=wrap;html=1;" parent="1" vertex="1">
          <mxGeometry x="478.5" y="200" width="160" height="40" as="geometry" />
        </mxCell>
        <mxCell id="22QkG0PA7Bmm-pPr16Uh-30" value="" style="endArrow=classic;html=1;rounded=0;exitX=1;exitY=0.5;exitDx=0;exitDy=0;dashed=1;" parent="1" source="22QkG0PA7Bmm-pPr16Uh-25" edge="1">
          <mxGeometry width="50" height="50" relative="1" as="geometry">
            <mxPoint x="518.5" y="130" as="sourcePoint" />
            <mxPoint x="548.5" y="147" as="targetPoint" />
          </mxGeometry>
        </mxCell>
        <mxCell id="22QkG0PA7Bmm-pPr16Uh-35" value="&amp;lt;&amp;lt;include&amp;gt;&amp;gt;" style="edgeLabel;html=1;align=center;verticalAlign=middle;resizable=0;points=[];" parent="22QkG0PA7Bmm-pPr16Uh-30" vertex="1" connectable="0">
          <mxGeometry x="-0.3454" y="-3" relative="1" as="geometry">
            <mxPoint x="8" as="offset" />
          </mxGeometry>
        </mxCell>
        <mxCell id="22QkG0PA7Bmm-pPr16Uh-31" value="" style="endArrow=classic;html=1;rounded=0;exitX=1;exitY=0.5;exitDx=0;exitDy=0;dashed=1;entryX=0.258;entryY=0.031;entryDx=0;entryDy=0;entryPerimeter=0;" parent="1" target="22QkG0PA7Bmm-pPr16Uh-29" edge="1">
          <mxGeometry width="50" height="50" relative="1" as="geometry">
            <mxPoint x="438.5" y="130" as="sourcePoint" />
            <mxPoint x="508.5" y="172" as="targetPoint" />
          </mxGeometry>
        </mxCell>
        <mxCell id="22QkG0PA7Bmm-pPr16Uh-34" value="&amp;lt;&amp;lt;include&amp;gt;&amp;gt;" style="edgeLabel;html=1;align=center;verticalAlign=middle;resizable=0;points=[];" parent="22QkG0PA7Bmm-pPr16Uh-31" vertex="1" connectable="0">
          <mxGeometry x="-0.1913" y="-1" relative="1" as="geometry">
            <mxPoint as="offset" />
          </mxGeometry>
        </mxCell>
        <mxCell id="22QkG0PA7Bmm-pPr16Uh-32" value="" style="endArrow=classic;html=1;rounded=0;exitX=0.317;exitY=0.971;exitDx=0;exitDy=0;dashed=1;exitPerimeter=0;entryX=0.452;entryY=-0.098;entryDx=0;entryDy=0;entryPerimeter=0;" parent="1" source="22QkG0PA7Bmm-pPr16Uh-25" target="22QkG0PA7Bmm-pPr16Uh-27" edge="1">
          <mxGeometry width="50" height="50" relative="1" as="geometry">
            <mxPoint x="391.5" y="139" as="sourcePoint" />
            <mxPoint x="461.5" y="181" as="targetPoint" />
          </mxGeometry>
        </mxCell>
        <mxCell id="22QkG0PA7Bmm-pPr16Uh-33" value="&amp;lt;&amp;lt;include&amp;gt;&amp;gt;" style="edgeLabel;html=1;align=center;verticalAlign=middle;resizable=0;points=[];" parent="22QkG0PA7Bmm-pPr16Uh-32" vertex="1" connectable="0">
          <mxGeometry x="-0.3058" relative="1" as="geometry">
            <mxPoint as="offset" />
          </mxGeometry>
        </mxCell>
        <mxCell id="22QkG0PA7Bmm-pPr16Uh-36" value="Manage Home Assistant Security" style="ellipse;whiteSpace=wrap;html=1;" parent="1" vertex="1">
          <mxGeometry x="360" y="960" width="160" height="50" as="geometry" />
        </mxCell>
        <mxCell id="22QkG0PA7Bmm-pPr16Uh-37" value="" style="endArrow=classic;html=1;rounded=0;entryX=0;entryY=0.5;entryDx=0;entryDy=0;" parent="1" target="22QkG0PA7Bmm-pPr16Uh-36" edge="1">
          <mxGeometry width="50" height="50" relative="1" as="geometry">
            <mxPoint x="200" y="920" as="sourcePoint" />
            <mxPoint x="254" y="950" as="targetPoint" />
          </mxGeometry>
        </mxCell>
        <mxCell id="22QkG0PA7Bmm-pPr16Uh-38" value="Peruca Assistant" style="text;html=1;align=center;verticalAlign=middle;resizable=0;points=[];autosize=1;strokeColor=none;fillColor=none;" parent="1" vertex="1">
          <mxGeometry x="294" y="30" width="110" height="30" as="geometry" />
        </mxCell>
        <mxCell id="fn7bttBEKci_fTVbFrJp-1" value="Multimidia Control" style="ellipse;whiteSpace=wrap;html=1;" parent="1" vertex="1">
          <mxGeometry x="360" y="690" width="160" height="50" as="geometry" />
        </mxCell>
        <mxCell id="fn7bttBEKci_fTVbFrJp-2" value="" style="endArrow=classic;html=1;rounded=0;" parent="1" target="fn7bttBEKci_fTVbFrJp-1" edge="1">
          <mxGeometry width="50" height="50" relative="1" as="geometry">
            <mxPoint x="200" y="610" as="sourcePoint" />
            <mxPoint x="300" y="600" as="targetPoint" />
          </mxGeometry>
        </mxCell>
        <mxCell id="RWqz3JO85AMVfZ8GLwPY-1" value="Manage vehicles" style="ellipse;whiteSpace=wrap;html=1;" vertex="1" parent="1">
          <mxGeometry x="334" y="330" width="156" height="50" as="geometry" />
        </mxCell>
        <mxCell id="RWqz3JO85AMVfZ8GLwPY-2" value="" style="endArrow=classic;html=1;rounded=0;entryX=0.034;entryY=0.643;entryDx=0;entryDy=0;entryPerimeter=0;" edge="1" parent="1" target="RWqz3JO85AMVfZ8GLwPY-1">
          <mxGeometry width="50" height="50" relative="1" as="geometry">
            <mxPoint x="200" y="500" as="sourcePoint" />
            <mxPoint x="411" y="500" as="targetPoint" />
          </mxGeometry>
        </mxCell>
        <mxCell id="RWqz3JO85AMVfZ8GLwPY-3" value="Manage pets" style="ellipse;whiteSpace=wrap;html=1;" vertex="1" parent="1">
          <mxGeometry x="334" y="250" width="166" height="50" as="geometry" />
        </mxCell>
        <mxCell id="RWqz3JO85AMVfZ8GLwPY-4" value="" style="endArrow=classic;html=1;rounded=0;entryX=0.043;entryY=0.66;entryDx=0;entryDy=0;entryPerimeter=0;" edge="1" parent="1" target="RWqz3JO85AMVfZ8GLwPY-3">
          <mxGeometry width="50" height="50" relative="1" as="geometry">
            <mxPoint x="200" y="470" as="sourcePoint" />
            <mxPoint x="399" y="440" as="targetPoint" />
          </mxGeometry>
        </mxCell>
        <mxCell id="fdvms3CZRuKxaVY-I8ky-1" value="" style="endArrow=classic;html=1;rounded=0;exitX=1;exitY=0.5;exitDx=0;exitDy=0;dashed=1;" edge="1" parent="1">
          <mxGeometry width="50" height="50" relative="1" as="geometry">
            <mxPoint x="490" y="360" as="sourcePoint" />
            <mxPoint x="530" y="390" as="targetPoint" />
          </mxGeometry>
        </mxCell>
        <mxCell id="fdvms3CZRuKxaVY-I8ky-2" value="&amp;lt;&amp;lt;include&amp;gt;&amp;gt;" style="edgeLabel;html=1;align=center;verticalAlign=middle;resizable=0;points=[];" vertex="1" connectable="0" parent="fdvms3CZRuKxaVY-I8ky-1">
          <mxGeometry x="-0.1913" y="-1" relative="1" as="geometry">
            <mxPoint x="2" y="3" as="offset" />
          </mxGeometry>
        </mxCell>
        <mxCell id="fdvms3CZRuKxaVY-I8ky-3" value="Maintenance Schedule" style="ellipse;whiteSpace=wrap;html=1;" vertex="1" parent="1">
          <mxGeometry x="509.5" y="390" width="156" height="50" as="geometry" />
        </mxCell>
        <mxCell id="fdvms3CZRuKxaVY-I8ky-4" value="" style="endArrow=classic;html=1;rounded=0;exitX=1;exitY=0.5;exitDx=0;exitDy=0;dashed=1;" edge="1" parent="1">
          <mxGeometry width="50" height="50" relative="1" as="geometry">
            <mxPoint x="500" y="279" as="sourcePoint" />
            <mxPoint x="540" y="309" as="targetPoint" />
          </mxGeometry>
        </mxCell>
        <mxCell id="fdvms3CZRuKxaVY-I8ky-5" value="&amp;lt;&amp;lt;include&amp;gt;&amp;gt;" style="edgeLabel;html=1;align=center;verticalAlign=middle;resizable=0;points=[];" vertex="1" connectable="0" parent="fdvms3CZRuKxaVY-I8ky-4">
          <mxGeometry x="-0.1913" y="-1" relative="1" as="geometry">
            <mxPoint x="2" y="3" as="offset" />
          </mxGeometry>
        </mxCell>
        <mxCell id="fdvms3CZRuKxaVY-I8ky-6" value="Vaccination appointments" style="ellipse;whiteSpace=wrap;html=1;" vertex="1" parent="1">
          <mxGeometry x="512" y="305" width="156" height="50" as="geometry" />
        </mxCell>
      </root>
    </mxGraphModel>
  </diagram>
  <diagram id="fnRqZbwFqAGzTq_wg0AI" name="Component Diagram">
    <mxGraphModel dx="1248" dy="889" grid="1" gridSize="10" guides="1" tooltips="1" connect="1" arrows="1" fold="1" page="1" pageScale="1" pageWidth="1169" pageHeight="827" math="0" shadow="0">
      <root>
        <mxCell id="0" />
        <mxCell id="1" parent="0" />
        <mxCell id="H_4CKYOH0WxVHew7dZPI-13" value="" style="rounded=1;whiteSpace=wrap;html=1;fillColor=#dae8fc;strokeColor=#6c8ebf;gradientColor=#FFFFFF;" vertex="1" parent="1">
          <mxGeometry x="141" y="168" width="900" height="320" as="geometry" />
        </mxCell>
        <mxCell id="H_4CKYOH0WxVHew7dZPI-3" value="&amp;lt;&amp;lt;REST API&amp;gt;&amp;gt;&lt;div&gt;&lt;br&gt;&lt;/div&gt;&lt;div&gt;OLLAMA&lt;/div&gt;" style="shape=module;align=left;spacingLeft=20;align=center;verticalAlign=top;whiteSpace=wrap;html=1;" vertex="1" parent="1">
          <mxGeometry x="191" y="338" width="220" height="90" as="geometry" />
        </mxCell>
        <mxCell id="H_4CKYOH0WxVHew7dZPI-2" value="" style="shape=image;verticalLabelPosition=bottom;labelBackgroundColor=default;verticalAlign=top;aspect=fixed;imageAspect=0;image=data:image/png,iVBORw0KGgoAAAANSUhEUgAAAOEAAADhCAMAAAAJbSJIAAAAh1BMVEX///8AAABhYWH5+fnx8fHNzc37+/vs7Ozg4OD29vbY2Njm5ubf39+JiYnc3NzQ0NC2trY7OzvExMSZmZlJSUlVVVV5eXmhoaEtLS2tra3CwsJOTk68vLwzMzMnJyeoqKiFhYUZGRl0dHQODg6RkZE/Pz9oaGgdHR1eXl6VlZULCwt+fn4wMDDVKY9gAAANvUlEQVR4nO1d13arOhCNE4xb3HvixLimnf//vhsX8B4VkOSRyFqX/WYwg8pousTDQ4UKFSpUqFChQoX/B15mj4/H2bzJSLK+P/7SHPcYSToj2tdSTOo8JON5RvJ9xUPyDgy+a4BjzECy/4Ekpw0GknegW6NYdO4mORdI1kpl1a3YmvvbI47ZL5iY3wV7uTW12n1cJc3gCc9M7bXGSNWa2pCf5AdXiy0RKVtTq23dSTb4Sd4DxSK8YORM8lNHspSl2Na1xp2p1Dx6wl2s74qJtjm1uSPJf3qSA9a2G6FPGvBGfu1aTiQHhMiC2BLvzM03wBHfvxV4du1EkgzT9KFJSLovbkd08O2H3wv1u0ecrMLTwiOj9snb/mKM8e1nOya5d8Sn+SRD26dDePfsfKW1g0uP9hSJek3kS26c74wevvtqba/xmr2smSseR7Nwwth8y+Zk84VNtJfur9IUCjZOWDZFZfiSXsQRP9pSJJ3JwgVo5AR1hmNsTnaVyNcnS5JLeHaaXUUVOWNqvBFQNcBs4cz2LUmifr2xeAuuBlX6c2VzyOWxJcl3eDa6XT7AZTdLyQ044CAAkE2n+qdVQAMGlfsXXA/pYIA2fMPrYHdt7BYiLjg03HE9BNSIuDqIczqDG3bhUwzPtOE6itgfjrab4Vkz4A8ruKEQ7q1Gs9frdRqK6UUhRW4snBn/HqCNTCxQXE1f5JHOIJkuUrtuMzyO6xG5Dw9S4wU04sJTdxRA3UUDpHADtMjLDCVl1hMI2qMF2iUUkX3DCdMv7VtBBKXqq6+N5/z+Z36VxOgoUYMPrd37w82mAIEicA725nxhgE6ICsfzRKIobROKL9o7PvF4e6lg8aPb+LvQliAntHh8ps9RCxtnN5yfD4JPcL1xLjp1k/6dsG3BahMUKVoR4Wxv4DwhVosKGg2uAmxgLN4oRZRBy2A9hPYIBj/xjN0g8D1aF65RSnuA7E/onY7UYGsIfP8EQUVba94ZMaQwqfLSJh4sIPjO8eZ2ixoRHvEELxV6qMvWWEDgexzO/R/oIQm4Cdh8dtfLwWCwnP/kZARE+7qUOcRhTQx7eBj3MMcfjbYbzT8Fik9AMVgPUdIII67p4Y8i9/20UquTRKAIt8LJUnB0BX3YUs3MWOcMtx8V/07of3Blh3OBYfCF4DYu0XT+IjWRM+ryPOZI53AaHzIMr/QOyoUzFkXWslSakND76G2Hs9rAgxBsrLHQ3K6aAKIjTiO1vNEODBeKAjt5R9ZYU2ismTMwow9RtkBbPlzVCXLWdcQbvX693qd67tu0RcLMj0+kmpF8L1zmAgNOvYf2/PhRU+DDvEFL1fO1Q7Lq4ATvbDMF7kCvdKgKwZxhE3MQ1++tlxt4lbcOSTCyr+3EwrGYoEva1RWSTlDAVjsb+MsGgpkNr4WtsR5vA88yZE3NT2Fr8gwZNZRViQQhC03XRY1x8eQKe8hRgGyIXmEQzUVzaeVpinBJ4FVRU9zaUhwfmNjzvhMKx7r2wVHXpkSQuL6y9Jng4GpdqU0bggCBfUWl+S+O81G712uP1sm2e0fsPVrOtvtB/7nz3B/s1SrJu0BVsOjiy9dbR6q0lWdGlflo8lL8lDui8UZ84btXcdMXX7fxng5qSeveZ4GbJM+DhGg74oL0WLk/pW/ahcpYfgld9GagCpbjIZD+fZBtDE/O/jN9S0BvTdr64KnuZFJeB6Xh9cKnlFNeix/ghSDGPbwhJtGmf+GCQileSA89JGmoSxiusuUGqhjZxRydwnAJBAQJ5bCrYmKuBZYyKWgoh7sEjHj1ZW0+JmY/c6qNSLJgJRESMPrMXKlI3Bhe0jYgGovVZmzhTrnA23MIcBITTsJYMvsdsmReBAo8VjZFJg0ZW5eAlRmsbIrMUdrm+DMw2s4o8TC1e+Aj6wJ0Mhg9jKWfgXMCsJPjdmMVkDXCVSKrMfPSFjQI2Yg6AgPjfF6iH953AxqnbGIdk9rBCiC1gMaw7e/Wb4YoA7Bk3or/bQYsS7LdOJmhUV/ut6+L97fD6/FnvOo5BwmkLR0MQJtNtyPtebAcaG2BuJ5IG0t2U/3hYK36cvmic+K7HnqIERK1a1i/xOEOygqT3o+yoOj0/7lSo13DFTN1HzFq69ojEYU9vA2rbA+85JeRzKSJjG7TrVwSGDC6u2tpI4GmalwxRCREcOp5Fd0XiPWn+IQqbee7h4o5pJFMbG/LpNJJcDhJTE9V5+WbSxVhRMqGifq5XExhWOgdhXLCNA1XD1GWyqagUFN601HqfLgSm2zFCQkKRWgdjWSuHqI+lDO+QvVQxlgih072q3anEUVRo1lfb8Wa/pSuuHFKrhKCFN+Oq4doCsrCUqgAu/qPMU1rHleihu/MKXcv1T2UZQ2EjPiSJ9hU6aYwV1dbEZOpuy+1Fu2TzQiXJScWdkoaFvPQfNvXwev8lm4KVdqXucCJ7eod1basGuiZWvK6R6HAF/VDU1DS0LSS6eJ3w9p8zU/iwNPfkUxOliV4spKzkSwBhYm8M4e06HwbxGtSRLtzY5BLOoRMouwB4m2+/BOKcLnWYyDdvfGewU6l1k3irMSXyZEYvMsYFCNVz7JGvCVMhmfhfou9G2Xh4tuAnH/DSpO9FV+RW5SXimqW1XUEZhftNbRsQpwx6kV09K+cqDhgl4hazi00JCOicOvi0Xg7G19vZHNgHNPJFG4aqB91tz9rldmNdtKGs2YYNwEWRkcyVSgIgua4u/69FA+6e5HTs4BsQREZmULew1yI0stvRtYKQVtdrJXl6MySokWdMnbBEWHEuuCN3BJjapMba844WrhOzDhxg08qj/NPJiKLhXsHDWlfLp+m0y2KmRqBuJhNJoZ6MdybEcnRlrlCMj1mVTQ46ByKbJBqgRz90iLhHrZIYgZal5hjEer6QBhd6kgqa3IizjQgwr+fVHB09dx0/YNscEC0Q56p1FZJtHSphe8ju9A1fMP1D4qam+jqLQ0Vw5NKYK0KEPZFeSnK2pBXaK3e632V3L9af6pIcGEPaSjBz9kDNISiDVhrufR3Ei/+ucpYKeRSwkKeSr2pONXWRV3vqxK0V2GjkpepQtRKGlIJ7SnVTgq//mn/lprRCvf02g2Vrkm1hVZI0/H1UjpInW+9ukhlnmJFjbV3DDQ+ze04dKAQJDSWsxCykZBNfz2XpnIkZ7s2Da17mETKJTnxg8zyViypc0cUW/ey4zTyLG9SAOphXzeJ/OWGgLJ/KjgubnRUZnvmuee6LaR8kH2zjoVnls228ZEDma7LNzYjDJRbH8VcBMIiBS3PDMh3s5Kem1NUUCVAtrRwF3qj2VsUfrmZBhuTfXu3dhf5CyQixlwzQcIYhcwHEe/CsHQDFnhhhPeuE8Pzgd51cT4kBuMg/0NeT9jm4lodYn6bt94E6LoYsAdpyXCgWzJNYmyaTAqqfd44DVI2kZDCHp7pvB8RAyBudUZ7aqUYWdNYrc9ajR3ZtkQwEE7YLIaHw+SMw5tcf/JqFP1E/4Z1oyW219A1a2rPrVHC8IwC3LrDatag+2lqTLS0H29SwNjMRKKcJfWY8DTfMGNwRsIFU/OYBC5EzopziATa7AGIjcoxDjYmJqaAOcNtoN/sajqjcdFynNplkFAPMR6jiOc9WudD6on+xM/J2jZmhsYVY2oGHQuXgWus9sfJ2/vH7hyJ+t5tPhbD6Wzed0mPQZab0W5D1nA3eOM4frogviPzByKB8SNX2MPgXwcTAAk2xrg3RvT/0H4Lxv3kuBm+7I8QJ957yPnlZhd0/089ZIztYw/L3Zzni0v/kqT58d7DEj+wfIYfbVHONybUgGw7o8ZHq63MndwnQOiD0WqLoPI44SPrAvwYBOc5iuAClXQmRor8mnN3QMSbv47FChgx4ox6Y7g03PlXKmDqglNxId1y1cWjp7FG3ih3uzpIBNb1Yh8R9gQsHeM9es82qu8LuFx4NTOKmnIOibrAX2YGN9qVeDIGOZeOlzTJkJbn5mPsnTuRj/WvHk/XzAc5XZTbBSA5iLJ8RFJiyn3UERm+gJ9hQJCcJD8jbf2SNwA9AZdv31oKWl2asNMvRIPkjX3YHbSUPdwHwq5o0a2XPk6gFooPQksbWsiuL2+9B3TDL3tdWT6IQvaxCk/AWEZweUr3ePuSdIO/0kPDikB7EE4JbJ0Si9SbsiLFj6GPUyJF2L4cOCzWD/id8wuwCMNXnIG8I3zoG23/Dz+vwCBQCZYpsUq95NqJnCnjUDOcRC/aGCu92Y5NsQFZJT5OTMeauXAfdUVs/MoBu0pvL8CqPQ8qEWNRf+DEctbjBi7AIFBZWVKUNfy+jZ9TU+yARhW7KEAOKe0MU2wE+0rBZVhebgbsxndu2rjzo7yCEwyHce/mxigNM2kLoNXBbbiBf19StPQE9IOZRc0TkOY9F8YO0AzmL1qii/1Hvo3AHDFFq7fMRD56cLyUcYmXWX+JGzh47bZyvnAuA60aXssK1GH+GUqeMfA20sAd7MaEDVAe8Kp86KGflIEh6lUPnQE9DB4pRfjrIUiaUtdhwbHUdwDOv2H89ok9UC/zytK5N8p2QL3MO9Koh8rcj+Dj0w8X4Aovs64NokXM8gCr9UsriXp4iKEZ3IEaIF2ij4+ilLsaBKMYfsoETIDLkLveBIVYaRsSyEFH3JGo3vQxg8UBAbxYfmZt+CxRGlSoUKFChQoVKlTgx399TJveGLdP+gAAAABJRU5ErkJggg==;" vertex="1" parent="1">
          <mxGeometry x="361" y="368" width="46" height="46" as="geometry" />
        </mxCell>
        <mxCell id="H_4CKYOH0WxVHew7dZPI-6" value="&amp;lt;&amp;lt;REST API&amp;gt;&amp;gt;&lt;div&gt;&lt;br&gt;&lt;/div&gt;&lt;div&gt;Preuca API&lt;/div&gt;" style="shape=module;align=left;spacingLeft=20;align=center;verticalAlign=top;whiteSpace=wrap;html=1;" vertex="1" parent="1">
          <mxGeometry x="489" y="338" width="220" height="90" as="geometry" />
        </mxCell>
        <mxCell id="H_4CKYOH0WxVHew7dZPI-11" value="" style="shape=image;verticalLabelPosition=bottom;labelBackgroundColor=default;verticalAlign=top;aspect=fixed;imageAspect=0;image=data:image/png,iVBORw0KGgoAAAANSUhEUgAAARMAAAC3CAMAAAAGjUrGAAAAeFBMVEX///8AAADd3d25ubnOzs7X19d7e3v7+/vAwMDU1NTy8vK1tbWqqqr29vbg4OBPT08sLCzr6+taWloWFhY0NDSXl5c7Ozuenp5zc3ONjY1bW1tHR0eCgoJqamphYWGkpKQlJSUcHByIiIgSEhJSUlJJSUl3d3dAQEBaRDCeAAAF8klEQVR4nO2ca3uyMAyGraIiig7F0+YBne/2///hK1hmWgqU6lZTcl/7wkHW5CpP0zSl0yEIgiAIgiAIgiAIgiAIgiAIgiAIgiAIgiAIgmgJy658xpvaaMcLMWRMckGPschOW14Fj7GVcKLPGDtbasyLcLy6wAfH0el6YmatOS/BNxM6SvB2PWaJrda8BN3UBWyUH2a9hLGFzSZZZ5D5YMCPPHbjzWqbLDPlPgizozV3CftnuVmWmPaW+/k85k7oX88E89wlbGO7dRbo75jIttOZiIctw59JHmHfI+8bHo9tN/GPieayR9j+KHnJ8eC+7/seDNUnBY+wz4V04hRYa+4fMOJWvm2WvWlwHV3C9eYSfxb9IvBuu9m/ykqwNfk4bAa73SWp8YnTEhvV9Qg1nu12/yZBXY9Q8um0nHQKo64OF9ut/l2K464GE9ut/l32Jj5xPDo5G7gksd3oX2Zs4JOJX/9ckSEqUfbqXVDAZw3+QeSNd7M3VG9b2NwlXxe9+GTYH2/5sNa4Y9ml+WC8u/5VPzOYjrd7EPks/8aUp6GY8lUTX6cDH2VPC7v+cv8h/eLwl/Y8g2FTn2R5e8WaV+Qf9yt5Ap2SDP/eqgdZNnVKChSUYeAdd3H5vaj09UZ4MvDJTSGGUX+ye6/5PTJ9veEb+GR//d3xUtE5JO+hw+DtSa4/2+rcOLdsmzEGTgn1+leMT19zeo194uWrptUUSlcQETWdH6fpgvq7erbteoxuM6+kC8i1Eos/bRtNLvo+SRfR5bVCxgO6HLT6KhB5W935T0eeFsx2ay/YgBMJqgRBJaG/YRqM7iKbbNZ+lA0wQjYGs76Gkb8exGx7tyHsrRReEElXjNnqsPSB6SN4A1J9HU5Hx8H8lFux2vnZ3C58P4bjuoWftNpCejmiE7iOsAow8MaD2VvR1NW6kybfTr3gX7VPVsVnQolGttzRHy+rBph0yvt+HTTCmmWOwnR3AC4moQXDjKkNQ9IOkIbtybQ6/pD1QtDXvg3TjOnX+STtKFmWNq6e0GwqnoutZEcRaYmkydZs3DlUDspi+iyEC8+Dkn/9utT55NTJ37CvyvtG8KEw1EOmrylVr0R8OPdSLbjpZawYmO7A5D1cTkQZv74rTZyfJ/0oHy74W1NdiXF/opBrwKWvnKncOQYTTxo7a4KTGz9K2lWexQXMq/WUaXXVmkSBmN8c4NZXDtCJL9V1nRQa+0nJw+AO7yYWuHI+UlzXXBy8xfcwV/2JeAMYiGZjxWV5dbOMdHKEX185kWSYSH2sm9MVXzPcRV1HYEmhv2sllTKSCE6K0OorB2SN9tKlqGC6HqXVBliA74dUYnMwc8kCY/wqAiYziXBBcyAuoBrAkAGrtoSFbq0YtsjRliHPBCaBpurTDVDGfvgA8ed9eSrQCusLoNdXDhSOn0zioNTsShDHryIw68FPjUqtrsShzSvAKp4hMtq74oa+cmDKLZuqGBX8ObbbGIRn6SxfzjbpscJbjKQChvET0wjWGX3lrIFtocmGBKf0lQNSbgPdtIlAMdWAHrO+cUeeVDuBfrJEhSpLhx/TbMkN1/SV03i3CgBlMb0O3/W2l4C0mF4D0ySSm/rKMZwLIy6mr8dgo2QKws1KDWi+B4E5rK8cg88WuKuvnOYTYnSbQZujtWkLcHJZX3MafjDHbX3lNNspibSYvilN8kn4Nyvp0WAu6PanyCDremfcWLRBXzk6W6hTMG9WaormehfSYk9DqmvJOW3RV06gEaQgLKZ/jPqU2wLVZqWnUFuPg7nY05C6lFu79JVTveMJ4WbQJzCskllXipGaUpFya6G+csrngi3UV05pyg13Mf1jlKTcsBfTP4ayGrSt+spRlV84UEz/GIr9+w4U0z9GMeXWZn3lHCWXtFtfOeJ3cr5tN+clEFJumDeDPhNYfuFesacZIOVG+przk3Jzq5j+MWakrwVuc8EF6SvkTPpaIE25OVhM/xi+08WehpxbtFhOEARBEARBEARBEARBEARBEARBEARBEARBEASR8R/vyj0dXSbTaAAAAABJRU5ErkJggg==;clipPath=inset(16.12% 24.91% 17.21% 30.36%);" vertex="1" parent="1">
          <mxGeometry x="649" y="368" width="47.38" height="47" as="geometry" />
        </mxCell>
        <mxCell id="H_4CKYOH0WxVHew7dZPI-12" value="&amp;lt;&amp;lt;sqlite&amp;gt;&amp;gt;&lt;div&gt;Peruca.db&lt;/div&gt;" style="shape=cylinder3;whiteSpace=wrap;html=1;boundedLbl=1;backgroundOutline=1;size=15;fillColor=#f8cecc;strokeColor=#b85450;gradientColor=#FFFFFF;" vertex="1" parent="1">
          <mxGeometry x="851" y="608" width="160" height="120" as="geometry" />
        </mxCell>
        <mxCell id="H_4CKYOH0WxVHew7dZPI-14" value="" style="editableCssRules=.*;html=1;shape=image;verticalLabelPosition=bottom;labelBackgroundColor=#ffffff;verticalAlign=top;aspect=fixed;imageAspect=0;image=data:image/svg+xml,PHN2ZyB4bWxucz0iaHR0cDovL3d3dy53My5vcmcvMjAwMC9zdmciIHhtbG5zOnY9Imh0dHBzOi8vdmVjdGEuaW8vbmFubyIgd2lkdGg9IjcwMi44NDYzMTM0NzY1NjI1IiBoZWlnaHQ9IjY4MS45NjcxMDIwNTA3ODEyIiB2aWV3Qm94PSIxMC4wMDEwMjYxNTM1NjQ0NTMgMTAuMDAwOTMzNjQ3MTU1NzYyIDcwMi44NDYzMTM0NzY1NjI1IDY4MS45NjcxMDIwNTA3ODEyIj4mI3hhOwk8c3R5bGUgdHlwZT0idGV4dC9jc3MiPiYjeGE7CS5zdDB7ZmlsbDojMzI2Y2U1O30mI3hhOwkuc3Qxe2ZpbGw6I2ZmZjt9JiN4YTsJPC9zdHlsZT4mI3hhOwk8cGF0aCBjbGFzcz0ic3QwIiBkPSJNMzU4Ljk4NyAxMC4wNmMtNi4yMTMuMzEzLTEyLjMwMSAxLjg1NC0xNy45MDYgNC41MzFMOTYuNzM3IDEzMS4zNDJjLTEyLjgxMSA2LjExOC0yMi4xMTYgMTcuNjg5LTI1LjI4MSAzMS40MzhsLTYwLjI4MSAyNjIuMjVjLTIuODEyIDEyLjIwNy0uNTI0IDI1LjAyNCA2LjM0NCAzNS41MzFhNDYuMzUgNDYuMzUgMCAwIDAgMi42NTYgMy42ODhsMTY5LjEyNSAyMTAuMjgxYzguODY4IDExLjAyMiAyMi4zMTMgMTcuNDQgMzYuNTMxIDE3LjQzOGwyNzEuMjE5LS4wNjJjMTQuMjEyLjAxIDI3LjY1Ny02LjM5NiAzNi41MzEtMTcuNDA2bDE2OS4wNjMtMjEwLjMxM2M4Ljg3My0xMS4wMjggMTIuMTk3LTI1LjQ2NCA5LjAzMS0zOS4yMTlsLTYwLjM3NS0yNjIuMjVjLTMuMTY1LTEzLjc0OC0xMi40Ny0yNS4zMTktMjUuMjgxLTMxLjQzN0wzODEuNjQzIDE0LjU5MmMtNy4wNS0zLjM2OC0xNC44NDEtNC45MjYtMjIuNjU2LTQuNTMxeiIvPiYjeGE7CTxwYXRoIGNsYXNzPSJzdDEgc3QyIiBkPSJNMzYxLjQwOCA5OS4zMDhjLTguMDc3LjAwMS0xNC42MjYgNy4yNzYtMTQuNjI1IDE2LjI1IDAgLjEzOC4wMjguMjY5LjAzMS40MDYtLjAxMiAxLjIxOS0uMDcxIDIuNjg4LS4wMzEgMy43NS4xOTMgNS4xNzYgMS4zMjEgOS4xMzcgMiAxMy45MDYgMS4yMyAxMC4yMDcgMi4yNjEgMTguNjY3IDEuNjI1IDI2LjUzMS0uNjE5IDIuOTY1LTIuODAzIDUuNjc3LTQuNzUgNy41NjNsLS4zNDQgNi4xODhjLTguNzc3LjcyNy0xNy42MTIgMi4wNTktMjYuNDM3IDQuMDYzLTM3Ljk3NSA4LjYyMi03MC42NyAyOC4xODMtOTUuNTYyIDU0LjU5NC0xLjYxNS0xLjEwMi00LjQ0MS0zLjEyOS01LjI4MS0zLjc1LTIuNjExLjM1My01LjI1IDEuMTU4LTguNjg3LS44NDQtNi41NDUtNC40MDYtMTIuNTA2LTEwLjQ4Ny0xOS43MTktMTcuODEyLTMuMzA1LTMuNTA0LTUuNjk4LTYuODQxLTkuNjI1LTEwLjIxOS0uODkyLS43NjctMi4yNTMtMS44MDUtMy4yNS0yLjU5NC0zLjA3LTIuNDQ4LTYuNjkxLTMuNzI0LTEwLjE4Ny0zLjg0NC00LjQ5Ni0uMTU0LTguODI0IDEuNjA0LTExLjY1NiA1LjE1Ni01LjAzNSA2LjMxNS0zLjQyMyAxNS45NjggMy41OTQgMjEuNTYzLjA3MS4wNTcuMTQ3LjEwMS4yMTkuMTU2Ljk2NC43ODIgMi4xNDUgMS43ODMgMy4wMzEgMi40MzggNC4xNjcgMy4wNzcgNy45NzMgNC42NTEgMTIuMTI1IDcuMDk0IDguNzQ3IDUuNDAyIDE1Ljk5OCA5Ljg4MSAyMS43NSAxNS4yODEgMi4yNDYgMi4zOTQgMi42MzkgNi42MTMgMi45MzggOC40MzhsNC42ODggNC4xODhjLTI1LjA5MyAzNy43NjQtMzYuNzA3IDg0LjQwOS0yOS44NDQgMTMxLjkzOGwtNi4xMjUgMS43ODFjLTEuNjE0IDIuMDg1LTMuODk1IDUuMzY1LTYuMjgxIDYuMzQ0LTcuNTI1IDIuMzctMTUuOTk0IDMuMjQxLTI2LjIxOSA0LjMxMy00LjguMzk5LTguOTQyLjE2MS0xNC4wMzEgMS4xMjUtMS4xMi4yMTItMi42ODEuNjE5LTMuOTA2LjkwNi0uMDQzLjAwOS0uMDgyLjAyMi0uMTI1LjAzMS0uMDY3LjAxNS0uMTU1LjA0OC0uMjE5LjA2My04LjYyIDIuMDgzLTE0LjE1OCAxMC4wMDYtMTIuMzc1IDE3LjgxM3MxMC4yMDMgMTIuNTU3IDE4Ljg3NSAxMC42ODhjLjA2My0uMDE0LjE1NC0uMDE3LjIxOS0uMDMxLjA5OC0uMDIyLjE4NC0uMDcuMjgxLS4wOTQgMS4yMDktLjI2NSAyLjcyNC0uNTYxIDMuNzgxLS44NDQgNS4wMDMtMS4zNCA4LjYyNy0zLjMwOCAxMy4xMjUtNS4wMzEgOS42NzctMy40NzEgMTcuNjkyLTYuMzcgMjUuNS03LjUgMy4yNjEtLjI1NSA2LjY5NyAyLjAxMiA4LjQwNiAyLjk2OWw2LjM3NS0xLjA5NGMxNC42NyA0NS40ODMgNDUuNDE0IDgyLjI0NSA4NC4zNDQgMTA1LjMxMmwtMi42NTYgNi4zNzVjLjk1NyAyLjQ3NSAyLjAxMyA1LjgyNSAxLjMgOC4yNjktMi44MzkgNy4zNjEtNy43MDEgMTUuMTMxLTEzLjIzOCAyMy43OTMtMi42ODEgNC4wMDItNS40MjUgNy4xMDgtNy44NDQgMTEuNjg4LS41NzkgMS4wOTYtMS4zMTYgMi43NzktMS44NzUgMy45MzgtMy43NTkgOC4wNDItMS4wMDIgMTcuMzA1IDYuMjE5IDIwLjc4MSA3LjI2NiAzLjQ5OCAxNi4yODQtLjE5MSAyMC4xODctOC4yNS4wMDYtLjAxMS4wMjYtLjAyLjAzMS0uMDMxcy0uMDA0LS4wMjMgMC0uMDMxYy41NTYtMS4xNDMgMS4zNDQtMi42NDQgMS44MTMtMy43MTkgMi4wNzItNC43NDcgMi43NjItOC44MTUgNC4yMTktMTMuNDA2IDMuODctOS43MiA1Ljk5Ni0xOS45MTkgMTEuMzIzLTI2LjI3NCAxLjQ1OS0xLjc0IDMuODM3LTIuNDA5IDYuMzAyLTMuMDdsMy4zMTMtNmMzMy45MzggMTMuMDI3IDcxLjkyNyAxNi41MjIgMTA5Ljg3NSA3LjkwNmExODkuNzcgMTg5Ljc3IDAgMCAwIDI1LjA5NC03LjU2MmwzLjEyNSA1LjYyNWMyLjUwNi44MTUgNS4yNCAxLjIzNiA3LjQ2OSA0LjUzMSAzLjk4NSA2LjgwOSA2LjcxMSAxNC44NjQgMTAuMDMxIDI0LjU5NCAxLjQ1NyA0LjU5MSAyLjE3OCA4LjY1OSA0LjI1IDEzLjQwNi40NzIgMS4wODIgMS4yNTYgMi42MDUgMS44MTMgMy43NSAzLjg5NSA4LjA4NSAxMi45NDIgMTEuNzg3IDIwLjIxOSA4LjI4MSA3LjIxOS0zLjQ3OCA5Ljk4LTEyLjc0IDYuMjE5LTIwLjc4MWwtMS45MDYtMy45MzdjLTIuNDE5LTQuNTgtNS4xNjMtNy42NTQtNy44NDQtMTEuNjU2LTUuNTM3LTguNjYyLTEwLjEzLTE1Ljg1OC0xMi45NjktMjMuMjE5LTEuMTg3LTMuNzk3LjItNi4xNTggMS4xMjUtOC42MjUtLjU1NC0uNjM1LTEuNzM5LTQuMjItMi40MzctNS45MDYgNDAuNDU3LTIzLjg4OCA3MC4yOTktNjIuMDIxIDg0LjMxMy0xMDYuMDYyIDEuODkyLjI5NyA1LjE4Mi44NzkgNi4yNSAxLjA5NCAyLjItMS40NTEgNC4yMjItMy4zNDQgOC4xODgtMy4wMzEgNy44MDggMS4xMjkgMTUuODIzIDQuMDMgMjUuNSA3LjUgNC40OTggMS43MjMgOC4xMjIgMy43MjMgMTMuMTI1IDUuMDYzIDEuMDU3LjI4MyAyLjU3Mi41NDcgMy43ODEuODEzLjA5Ny4wMjQuMTgzLjA3MS4yODEuMDk0LjA2NS4wMTUuMTU2LjAxNy4yMTkuMDMxIDguNjcyIDEuODY3IDE3LjA5NC0yLjg3OSAxOC44NzUtMTAuNjg3cy0zLjc1NC0xNS43MzItMTIuMzc1LTE3LjgxMmMtMS4yNTQtLjI4NS0zLjAzMi0uNzY5LTQuMjUtMS01LjA4OS0uOTY0LTkuMjMxLS43MjYtMTQuMDMxLTEuMTI1LTEwLjIyNS0xLjA3MS0xOC42OTMtMS45NDMtMjYuMjE5LTQuMzEyLTMuMDY4LTEuMTktNS4yNTEtNC44NDEtNi4zMTMtNi4zNDRsLTUuOTA2LTEuNzE5YzMuMDYyLTIyLjE1NCAyLjIzNy00NS4yMTEtMy4wNjItNjguMjgxLTUuMzQ4LTIzLjI4NS0xNC44LTQ0LjU4MS0yNy40MDYtNjMuMzQ0bDUuMTg4LTQuNjU2Yy4yMzctMi42MjQuMDMzLTUuMzc2IDIuNzUtOC4yODEgNS43NTEtNS40MDEgMTMuMDAzLTkuODc5IDIxLjc1LTE1LjI4MSA0LjE1Mi0yLjQ0MyA3Ljk5LTQuMDE3IDEyLjE1Ni03LjA5NC45NDItLjY5NiAyLjIyOS0xLjc5OCAzLjIxOS0yLjU5NCA3LjAxNS01LjU5NiA4LjYzMS0xNS4yNDggMy41OTQtMjEuNTYycy0xNC43OTctNi45MDktMjEuODEyLTEuMzEyYy0uOTk5Ljc5MS0yLjM1NCAxLjgyMy0zLjI1IDIuNTk0LTMuOTI3IDMuMzc4LTYuMzUxIDYuNzE0LTkuNjU2IDEwLjIxOS03LjIxMiA3LjMyNi0xMy4xNzQgMTMuNDM4LTE5LjcxOSAxNy44NDQtMi44MzYgMS42NTEtNi45OSAxLjA4LTguODc1Ljk2OWwtNS41NjIgMy45NjljLTMxLjcxOS0zMy4yNjEtNzQuOTA1LTU0LjUyNS0xMjEuNDA2LTU4LjY1NmwtLjM0NC02LjUzMWMtMS45MDQtMS44MjItNC4yMDMtMy4zNzctNC43ODEtNy4zMTItLjYzNi03Ljg2NC40MjYtMTYuMzI1IDEuNjU2LTI2LjUzMS42NzktNC43NjkgMS44MDctOC43MyAyLTEzLjkwNi4wNDQtMS4xNzctLjAyNi0yLjg4NC0uMDMxLTQuMTU2LS4wMDEtOC45NzQtNi41NDgtMTYuMjUxLTE0LjYyNS0xNi4yNXptLTE4LjMxMiAxMTMuNDM4bC00LjM0NCA3Ni43MTktLjMxMi4xNTZjLS4yOTEgNi44NjMtNS45NCAxMi4zNDQtMTIuODc1IDEyLjM0NGExMi44MiAxMi44MiAwIDAgMS03LjU5NC0yLjQ2OWwtLjEyNS4wNjMtNjIuOTA2LTQ0LjU5NGMxOS4zMzQtMTkuMDExIDQ0LjA2My0zMy4wNiA3Mi41NjItMzkuNTMxIDUuMjA2LTEuMTgyIDEwLjQxLTIuMDU5IDE1LjU5NC0yLjY4N3ptMzYuNjU2IDBjMzMuMjczIDQuMDkyIDY0LjA0NSAxOS4xNTkgODcuNjI1IDQyLjI1bC02Mi41IDQ0LjMxMy0uMjE5LS4wOTRhMTIuOTEgMTIuOTEgMCAwIDEtMTcuNjg3LTIuMzc1Yy0xLjc3MS0yLjIyMS0yLjcwMS00LjgzMi0yLjgxMi03LjQ2OWwtLjA2Mi0uMDMxek0yMzIuMTI2IDI4My42Mmw1Ny40MzcgNTEuMzc1LS4wNjIuMzEzYTEyLjg4IDEyLjg4IDAgMCAxIDEuNjI1IDE3Ljc1IDEyLjg5IDEyLjg5IDAgMCAxLTYuNjg3IDQuNDA2bC0uMDYyLjI1LTczLjYyNSAyMS4yNWMtMy43NDctMzQuMjY1IDQuMzI5LTY3LjU3NCAyMS4zNzUtOTUuMzQ0em0yNTguMTU2LjAzMWM4LjUzNCAxMy44MzMgMTQuOTk3IDI5LjI4MiAxOC44NDQgNDYuMDMxIDMuODAxIDE2LjU0OCA0Ljc1NSAzMy4wNjcgMy4xODggNDkuMDMxbC03NC0yMS4zMTItLjA2Mi0uMzEyYy02LjYyNy0xLjgxMS0xMC42OTktOC41NTItOS4xNTYtMTUuMzEyLjYzMi0yLjc3IDIuMTAyLTUuMTEzIDQuMDk0LTYuODQ0bC0uMDMxLS4xNTYgNTcuMTI1LTUxLjEyNXptLTE0MC42NTYgNTUuMzEzaDIzLjUzMWwxNC42MjUgMTguMjgxLTUuMjUgMjIuODEzLTIxLjEyNSAxMC4xNTYtMjEuMTg3LTEwLjE4Ny01LjI1LTIyLjgxMnptNzUuNDM4IDYyLjU2M2ExMi44MyAxMi44MyAwIDAgMSAyLjk2OS4yMTlsLjEyNS0uMTU2IDc2LjE1NiAxMi44NzVjLTExLjE0NiAzMS4zMTMtMzIuNDczIDU4LjQ0LTYwLjk2OSA3Ni41OTRsLTI5LjU2Mi03MS40MDYuMDk0LS4xMjVjLTIuNzE2LTYuMzEuMDAyLTEzLjcxIDYuMjUtMTYuNzE5IDEuNi0uNzcgMy4yNzEtMS4xOTcgNC45MzgtMS4yODF6bS0xMjcuOTA2LjMxM2ExMi45IDEyLjkgMCAwIDEgMTIuMzc1IDEwLjAzMSAxMi43NyAxMi43NyAwIDAgMS0uNzE5IDcuOTM4bC4yMTkuMjgxLTI5LjI1IDcwLjY4OGMtMjcuMzQ3LTE3LjU0OS00OS4xMjktNDMuODI0LTYwLjc4MS03Ni4wNjJsNzUuNS0xMi44MTIuMTI1LjE1NmMuODQ1LS4xNTUgMS43MDEtLjIzIDIuNTMxLS4yMTl6bTYzLjc4MSAzMC45NjljMi4wMjQtLjA3NCA0LjA3OS4zNDEgNi4wMzEgMS4yODEgMi41NiAxLjIzMyA0LjUzNyAzLjE3MyA1Ljc4MSA1LjVoLjI4MWwzNy4yMTkgNjcuMjVjLTQuODMgMS42MTktOS43OTYgMy4wMDMtMTQuODc1IDQuMTU2LTI4LjQ2NSA2LjQ2My01Ni44MzkgNC41MDUtODIuNTMxLTQuMjVsMzcuMTI1LTY3LjEyNWguMDYzYTEyLjkxIDEyLjkxIDAgMCAxIDEwLjkwNi02LjgxMnoiIHN0cm9rZT0ibm9uZSIgc3Ryb2tlLXdpZHRoPSIuMjUiLz4mI3hhOzwvc3ZnPg==;fontColor=default;" vertex="1" parent="1">
          <mxGeometry x="1001" y="160" width="40" height="38" as="geometry" />
        </mxCell>
        <mxCell id="H_4CKYOH0WxVHew7dZPI-15" value="" style="shape=image;verticalLabelPosition=bottom;labelBackgroundColor=default;verticalAlign=top;aspect=fixed;imageAspect=0;image=data:image/png,iVBORw0KGgoAAAANSUhEUgAAAOEAAADhCAMAAAAJbSJIAAAA8FBMVEX///8PgMwAO1fk7vd1qttRpd2O0/OK0PKGzvGCy++S1vR9yO55xu1xwOppu+h1w+xluOZcs+RUreEAdMia3PdMqN87ndpDotwzl9cqktQeitEijNIVhM4AMVAAHEMAJUgALk4AI0cAcMbW298AJkXw8vOVoqwIPVlne4q9xcuvucCmsbkXQ13GzdI4V20AGUJPaHu+1e1zlbIZbKGNm6Z3sMqDw+E/XHFDd5NwsdInTGTk5+pRja14ipdCfp9HjLNRoc8xc5gSTGw2jsQAK0IADTwRWIEbd7IUaqANdLkFSG0AVodxgYsAZ6tVmtUAY7XlSf+eAAADS0lEQVR4nO3aeVMbNxzGcSElHAESYAOEgNbrNdiYcLjBCa0pzeVSmuZ4/+8mWu3a45kgedaho5Hn+7FZ+8/fM7plhAAAAAAAAAAAAAAAAAAAAAAAAAAAAAAAAAAAAAAAAAAQrXYnvehdh67i/9PSmZRSp63Qhczit0fTvW7KUha62hnsJTuPp9i+zOQoYT90vbU9Ong+1ZtDm06fD8wzdMG15atPpnlbBez1zDM9Cl1xTSp/sjhNpwx41S76aiO2uUbli0t+i79rm7DTsrNNhAmXlr2W/ij7aHo9sJ/N2JZElS+veC2flsG67XI+TUNXXJfKV1Z9Vv60fVQfi7RcLk5DV1yXylfXvMpBqEWv+nITuuK6VL72zGPtLxssPWtVm5pGN3TFdan82brPqI8Oqj1NdMPQJFxff+q0XjZhU3QbZUCTNTYqd+czbMCsLTpVEzbOQhdcm0m44fT0XTm9iJOqCWUndL31qWRj02njo223EzE+WbwKXW99KnEH3Hw/LFfAcRNmocudgUm45bL5oWrC01HAduhyZ6ASZ8CtrTLXeCKNsgmLhNsOW7aTmqF3PppIIxyFRUJXwO1t20kPxWg7E9+W1PIlLGZS3RfH5ZIhm/GthQWV7DoN7aXFUXWo0L3Qtc6mSLizY972b/LL7qehjVWdC/VFbBc0FZXsOHXsUcJu2HTai7OPehPeXhZ77mKeyRr9SBtQFAlfOHwaXhZHiRutdVu0bmK7nhlzJ7yUHzuHXZHpXv+4+Xd8V90jKtlzMSeJVJw1BlJLfR66ztk5E+7f3kp5ZTqpXQrjHYYm4f79/jHD0Oy0y2ua6C5nJqjk5f3u5K1stK6LHVsW3f3aJGfCg2ExDNumDfUgdJG/RCUHDp+lPBdXWjZ7EQ9CUSZcMC/7GH8sGHfFrjvVOta9zIhKFhz+lVm3lUa8TFTcCRdk47of9xC0PAk/p+Iq7iFoeRL+J8VJ6PIegCfhXeSTaMWT8OuX0MU9CF/CeM8Tk3wJo7w8/MmRJ+E8zDPG/twndHfTrzGfmSapb8n9vs9JG7odzcdM4zMfq4XP/CeM8ffQeuY/4Vls/2hZ31ycLQAAAAAAAAAAAAAAAAAAAAAAAAAAAAAAAAL6ATO8ev4vB76RAAAAAElFTkSuQmCC;clipPath=inset(41.11% 37.56% 33.56% 38.44%);" vertex="1" parent="1">
          <mxGeometry x="971" y="688" width="28.42" height="30" as="geometry" />
        </mxCell>
        <mxCell id="H_4CKYOH0WxVHew7dZPI-16" value="&amp;lt;&amp;lt;REST API&amp;gt;&amp;gt;&lt;div&gt;&lt;br&gt;&lt;/div&gt;&lt;div&gt;Home Assistant&lt;/div&gt;" style="shape=module;align=left;spacingLeft=20;align=center;verticalAlign=top;whiteSpace=wrap;html=1;" vertex="1" parent="1">
          <mxGeometry x="771" y="338" width="220" height="90" as="geometry" />
        </mxCell>
        <mxCell id="H_4CKYOH0WxVHew7dZPI-17" value="" style="ellipse;shape=cloud;whiteSpace=wrap;html=1;" vertex="1" parent="1">
          <mxGeometry x="120" y="487" width="430" height="310" as="geometry" />
        </mxCell>
        <mxCell id="H_4CKYOH0WxVHew7dZPI-19" value="&amp;lt;&amp;lt;REST API&amp;gt;&amp;gt;&lt;div&gt;&lt;br&gt;&lt;/div&gt;&lt;div&gt;Open Ai API&lt;/div&gt;" style="shape=module;align=left;spacingLeft=20;align=center;verticalAlign=top;whiteSpace=wrap;html=1;" vertex="1" parent="1">
          <mxGeometry x="230" y="614" width="220" height="90" as="geometry" />
        </mxCell>
        <mxCell id="H_4CKYOH0WxVHew7dZPI-18" value="" style="shape=image;verticalLabelPosition=bottom;labelBackgroundColor=default;verticalAlign=top;aspect=fixed;imageAspect=0;image=data:image/png,iVBORw0KGgoAAAANSUhEUgAAAOEAAADgCAMAAADCMfHtAAAAhFBMVEX///8AAAAxMTGysrKSkpLMzMyBgYFQUFD6+vr39/f09PTl5eXq6urHx8fGxsaHh4fb29vV1dVzc3O2trampqbv7++bm5tXV1ePj48/Pz+9vb1tbW1fX195eXnQ0NBGRkYXFxcjIyOioqIsLCwiIiI4ODhdXV0LCwsbGxtAQEBLS0sRERHS4tXwAAAQaklEQVR4nNVdaUPiMBDlEpAbBRQUAY911f///1buzmTeZHJU3PdRaZvXJnNPUqmUg85oUW80m8vlstlsTBZP03ZJD7oEerf3n3+rDt6W9e6lh5YDV0OB3Bk3t51LjzAJgweN3QF/FpceZiymjS8Dvx2G/+N07d5Y6e3wOLr0gAPRtUxPNln/J47Xy2B+WzxMLz1wKyZR/LaYXXroJnTfoglWq6/jSw/fj1kCvy2GlybgQfsukWC1+tK7NAkN3fdkgt/4xRbAwjP099qqddf6nKt2XJUJnHZvtLitT2aN2aR+e9W9qJGnLMHVsD7unL2Jdvdq9qhQXB5+N57cOHJr/Tm8lMV+D4b7cv8ke0qj2QpRfPj+b+NTeQcPF2A5lIdyr5oq02cwY1svCr09arOflUniF3wzCI1Fgv5s/aBQktbg6sp2bb8Wz/FrUi6vE+rus/8Oki6347k8Wmc8pT73OtwXKaBeEq0zps4zV8FCoJ9iLLw8lUGrgDl/Yoxx2U9g+K09rrOzKsDRE7fh95gmTdMtjGItBs4ijJgyjVR+1TK9Eh5vCjc2FusMBL8Xf0k2azOV4EizzsJQiiU3SnyIHtN5azYW49On6YwWsxvVPChjMTLjOXQNajGd5UIMTXUGQ8wyv2pkLmGgDXWF7esb9V31nhHJ7BYOHeJj0LU97CLO/EJjDK7O/BVvyc3fgzJmyJ/89rhsN+jJOjSvv0G9u5B1fiuObotHu8XXFQNfOU24Abnzg/3CkWPoHVELG9+VlP3JqDToKzQH5Ts4axO+ioR7/Q2+CUKX3Ne4eiqVZ8hvGJP6Fub7n4jbiKDWpNG6H8BY4l3k7Oq+OrfK5fmTNWD7hLJs2OK1Hz8QN2aXZylSp8Ji9rZBQK6aqqn/8Nu9Jd3uCDJciyDF4ZhlqlvgTI0stg2xZ/xCfgxNtM8Mc6rFb5oh3Uok6dr3a+zEv+cxQnjYNUA7I5A553OwsROfK+/b4TdOT7YSx0432Baw7iRj7p5HU1bJd9wUb6f9cAQTMPOsSW0ed09QP5VtZog4aJ/4l4oTn9tdZcauMigfRk6tGlb32Ik3W3lmdNkTYit0boVkERKHVxvEz+4jdXpma5XJsxvrdUW05UQvUGjQh3ixupLT3XT5sM5n9piIQDgS+vKtoIo3G8an573YZFI98jng+sInEX+OdHzTOuuIknkwGXY0tjy3MtsD++Xynfi6P8DsIzlKxmIbsI8QlALTip3EGJvoR5jzpm1ByVguplcE2N/TD4WgLLQkPW9+IlAyLe8EoBE8u0q80vid618I3JjtjdVHesKRYp8BzNaGVZr6yvGaFoYrqwJWIsVbeDQHnTpGy81bEGthaPaRvLnEufqq6PxumB7przc0MLR+QF9t3A5aSKBHftmyPNOQ3vMzFH/hYqQKtAIUkbUhPzQ8FDyT2N5+hiYlIWkIBGz30Zv4NaLs2y2nRPj4GVrs0MD68D9g8FTpe0WNKNaWUyYPcjBUcokIshih+sJnmkp2yefu3WVm2HMinif8VUr7JAHdJr/weKFSCuxQLJOXIc4l1r6dijZWIFIgclP8gZ60FWzn1jFylJMhziUe1btSUNR0zBaysvR4lFvmcp75+RgqGqKQixrjucqNHFL/oob3XdldkPm5GCq5RBbowDmBGnWPydC0XOLAuVPRLsnEEOcShWQwzuuQsCvVOoq77dyGLOosDAcbOGbRvtaqN86/ossaM3TmKJ0zGRjiXCJOBj/BYqH1aQnRyQf9J17NxcNp6QzxnFMDHdjyuesFMeTWGrd+UhliDeGNNPJawTOGAkM0G3jFrhMFSmOoaAhDBLDrJAtP2NojxAGDspRpH9cySGGoaAhjNQYWUasRVStIH3I/1H1uAkOsIQKyiUrJCjEBkU3DPqHg3UUz7Hs616zRjmtbszhIBY/pryTrNZJhzx8SMUescF6yADApmGKV8rRxDLEPUcTSGgNc+Js05Mgc6xARX0MMQ8WHYAhP3SDIE4IpVf+tTQyVvIeLjTn95mnUkGUzlTPyTA5kODYKhjPurFkVxa+qgs9jCowHMsT8sPY2p8GV1jdZlFJVAxIFgQwhv67PQjEB2riyoKFCGFjBWRge6hEHbvnkAR9WzYH8FFFk0eKiGrhlDobnx2OHwVxSBKKR0jSgpjkyo9IZEhNUqcs0G3LyaxLmKdXKyFVLZehUm2D/3Zw3vhb9KtcMJI7NK7pbGkOx3GsMFaY/9XuAKLW4a0tDxjBnlMLwHcnIW2iFmZsLpewcE1c0/wYt/QSG2sLC2WZr0VBbUL003UgFDZwe0Qw9Bc8dmGEzFzK65i91g6lEgreJZGiopsEWgFVzuJvIkFIKIrZx1D+K4cZWONDfII5GzdFxTNXiaiPTGBdLxzC0l5lBC2Bt1BwOxcLaIGl7bPyGMwxq+cEWgK1qrM0p3p3/R4wf/NZDGQYXdGPHz/Sq2jxxdtZQJFCERXQgw4hNCJSQgEVz9PhFp/dCyurxwLLn8V0opWZvBs3Ba/dPgyR//a0MTbOeWw9HS5jokmyzNDtDi+ZgtU7HCkoyS38zw+rap135rjIHKUwkTTZZWgZDf7SKqdXDRySKJJs+LIehV3Mwnbxfu6R0J5tNUxZDj+Zg6Yn9ByO2PS5e/GmGLzAE8KZFq9hVu7/du3/yMhTrvPMyrCkt0kqjAov97gxwGl6F1xKGYkAuN0PNPcaag37EXRaN5rfhyGhKRAoF5GdY6UBbdY4MALYStwF8qkRgnTRL+ghOTQkMtWgVysjRC3afgqh82LDA01quaiqFIY5WoSJEuup2yoEGEdCrcRN3XHeWxBCmWYHfeE1/tf0TXc8o2Catemqnl8awMhU1B5I2dO1unRLqdaAuRbFrgKTgy2MoN9WgkVI3c1fkTy8E1znN4YfHnNVLmQylSA6yTuhId8uVllyjaYrimqdOiHIZVto8SQHtL2Jp72qk6qYL2ygCf0zBl8zw216hXf6QIQ1qbScZc6uQ2deD2wjsOyFKZ2htAKIiY1eYS/OpuCMa5/zuf4Qhje1ChvRF7AQ+C3JhN7OHU/CLn2BIxA32g8jAGu6f1Lb2Pty28pEI9HIYEomBGZLChL2nx6afGmXWKg1/CUNiIOytO+ZV6U182OD/LQyJXlkJrL0VkYZ6rosyJNPssHcAr2P3FQt6a/IuypAIpPXhj+wj+rd4w5rj8gzJz94Pf+RNXf7Un9I9cWmGdIYd/8rNTkP5VR8Wb/3Gb8gdx+raUreLNUdydi37OnRLGlGBGwHuM0jNkKYwnIEb8S512x4TuFckLcudTR8WfuacB2DcHgxrjpRKhWw2TdEGdYY6N9bQQ82RUG2SwpD4AKR+zDHH1sbaa6w5DDV4csVQCkNyIzqR3Hdp7WjBRT+RVV8JDKmBRqeRU88AtqKRgMt+oyr3EhhSrcCmIYv672D9jHiXi4jqyxSGVIM5zxQeZq9nhduiBFbQpjEkTrqrEMReBrfLHwBvehlQBZ3IkC5DIW8vW2IZGpOsleypDOnSlvSV3JFi3xcQhwAs3QjpDGkCQJx94PFofxgHuDFp4+soycCQTlLZ9IQvOENjkt4VlIMhlejy7ktKpCm9MUnp7CJSPpYhyyDJagAT9O0sVoDtSxXwcE2UcSxDKmdkF5D7wnwkVsdPCwE42LZ0ZfHx6W3lSSrZNQQZOsw5drM/B0NmBco2sf/oPvOe47iZguAgwTIwZKsQFLFZTgzL2WF+snYyMGRCElQW2858M+9r6QkeFw76S2fICqHRDhLkrX+a9sDRoe2kWaw0TGfIrGK0mNj+hwOYT3u1dXsoJii16JMZstkHo4XEZ9t+KPwNLMc4KDvosKtTGXIRiT4A7UfczSIln7b0hAz7cO/AL2cAiQy5loP7mlGFfxiGIhI1v0oxbIRVnMbQicBAcS8yjNoFyamAOUOUxEkMO1xc4B1UAUNtnxK5+QovQKBNUxhOHXkICbJ1WFwsStzBjeArm3ciByWBoRskVGLRgqQ5QdmVmv6wizfvxHsZxzN0TWn1mATiEnCBgI3WQjhN0YDaIRDRDN1BfWkEaRmx0zUud/nvcPSrlC0d1TOUYhkK5r1uNpOgp1BrrKiARkfTgL6AXRzDsdC04OlXJK9E3GNhAKOiVWV3HO8hEDEMRWPEt9U2NdLkYfm2pXdhaOeNYCh6et7TUaluBzM68Fztv5ZEYiDDO/Ce/YldGnCEU9q8nXrVeggEqQv1MwRNQ5ZT9MgFynFm1s3KrM4yEQB+hjI+LE+iTXzaLy0bzpkDHlRtRzI0nRzA9gtVB+hJIIUclMfaHeIYGg/Qo8/y7BSjbx5vO26iIrhnUQytgRVadqIbQBXNh3i0Bo+FwqMYhvZSs7ew64AhVzMflCdFjsUFpYaY3wKqsKgeNRy2Kxly5oPy5F5RMc+lhXKDTo5k9bSWvOGA1RyYS75QKY5oAmGfZRV4tCnNqdiOpCvOIHMyFQY65Gciyf0efLIiM4ds7+ckLoy1XhVFSAHDBNj1Zol9Bivi85qyB/Qa8/fNg3U/OUXRALXWFn88jDgT0DkzOecJ9EdgYwEG74TzN14nMYeXV5wUh3waYBKwwYf9ZKfL8ybh1bMZn/sMUeU8a2XOEbH0Mkw7O5a/rqzH3MZumFgU8ZvkUXCxFTndBWDn2bPpJZF/xkPBFPCjBGxuiQExW0HsQaZ2TDMAA7c1oo6idYAPkvOfO0qCgLmPUt8ig7QZwfLMmt9PJpF7S6zCC8fMjTAdCJTKDMucI+PJI9w3eSkq5zeYxBi5JPaAagrn6Bl70bcLXI9oNNNJ3AtuBhwI1x27i1QauF3BbKYTIzbIGdTgCoavmOmh5KLMx+nS0GUGSbqHVMQX/vqwiWYuO2Kr0OrsGOAuxYACzD3wmVTmLeYr3LuP6W5EcA9jqwZ13mEfyR5JrfA3nUUZniC74UavU1mAYZqH+spmH9sGYEc2/VNsik1QcyR1D2oqBJ4R7wca53yiDvMKH+Jh7mw4gKWAcq7CPXBQ+2P2JE7XzgBn+0MaL/dglRbZvJwC1JOl58NJf3Q2BLpXzzdqKsN89NERvFYmMDJqA9+iV8L71ze8vzJ3iZ0wZTc1nykQhl748cQS1iEa4vBkdotcFqmL0MONJET4Jo7JkTVgRCHq/hAEd+hXBAmQ6qOquA4rv+CIkfGOwWDbIyAeeM9UA76Co7c9N00RFcAPgr0LRkCgFBSelcez9yC8GqqAAINSan8Pl8RRaKd8x5bxKzxJdeVmbzkdi9DOuwLuDMtxIJZblSpGHfSe1SP6dqiB9/AyUeXF6F5u0v9Zglv06lq10OOkq3RQ/akD4200QxGBbLGnMIzqzTl/4++r5uS42pTmvPWyPip+y/Zo0VB2ngr1R7Ji2n1a1CfPs9mkftvvUsPF15U+b91t0Zp7NG1mrz4nbHvle/BaisOUC9OAMlSAx3y5y3JgOxMY46JL0IZRijk7txYfXRbxnzG42OlSCN5/YA/zrjG/AaKlqePhV4tQAU/+Y9b/a35bdLUoKsG6kS1/9tNY+Erft1iWUUf3c7heqGG7l/v/m94B3cXww/WRNq3GwJ4y/Q8wfVpM7ofN5bLZvH9e9EdlkfsHqpbfdSfOji4AAAAASUVORK5CYII=;" vertex="1" parent="1">
          <mxGeometry x="400" y="654" width="40.18" height="40" as="geometry" />
        </mxCell>
        <mxCell id="H_4CKYOH0WxVHew7dZPI-20" value="Use" style="endArrow=open;endSize=12;dashed=1;html=1;rounded=0;exitX=0.75;exitY=1;exitDx=0;exitDy=0;entryX=0.484;entryY=-0.016;entryDx=0;entryDy=0;entryPerimeter=0;" edge="1" parent="1" source="H_4CKYOH0WxVHew7dZPI-6" target="H_4CKYOH0WxVHew7dZPI-12">
          <mxGeometry width="160" relative="1" as="geometry">
            <mxPoint x="591" y="478" as="sourcePoint" />
            <mxPoint x="751" y="478" as="targetPoint" />
          </mxGeometry>
        </mxCell>
        <mxCell id="H_4CKYOH0WxVHew7dZPI-21" value="Use" style="endArrow=open;endSize=12;dashed=1;html=1;rounded=0;exitX=1;exitY=0.75;exitDx=0;exitDy=0;entryX=0;entryY=0.75;entryDx=10;entryDy=0;entryPerimeter=0;" edge="1" parent="1" source="H_4CKYOH0WxVHew7dZPI-6" target="H_4CKYOH0WxVHew7dZPI-16">
          <mxGeometry width="160" relative="1" as="geometry">
            <mxPoint x="911" y="388" as="sourcePoint" />
            <mxPoint x="781" y="388" as="targetPoint" />
          </mxGeometry>
        </mxCell>
        <mxCell id="H_4CKYOH0WxVHew7dZPI-22" value="Use" style="endArrow=open;endSize=12;dashed=1;html=1;rounded=0;exitX=0;exitY=0.75;exitDx=10;exitDy=0;entryX=1;entryY=0.75;entryDx=0;entryDy=0;exitPerimeter=0;" edge="1" parent="1" source="H_4CKYOH0WxVHew7dZPI-6" target="H_4CKYOH0WxVHew7dZPI-3">
          <mxGeometry width="160" relative="1" as="geometry">
            <mxPoint x="791" y="388" as="sourcePoint" />
            <mxPoint x="863" y="388" as="targetPoint" />
          </mxGeometry>
        </mxCell>
        <mxCell id="H_4CKYOH0WxVHew7dZPI-23" value="Use" style="endArrow=open;endSize=12;dashed=1;html=1;rounded=0;exitX=0.351;exitY=1.003;exitDx=0;exitDy=0;entryX=0.5;entryY=0;entryDx=0;entryDy=0;exitPerimeter=0;" edge="1" parent="1" source="H_4CKYOH0WxVHew7dZPI-6" target="H_4CKYOH0WxVHew7dZPI-19">
          <mxGeometry width="160" relative="1" as="geometry">
            <mxPoint x="631" y="508" as="sourcePoint" />
            <mxPoint x="703" y="508" as="targetPoint" />
          </mxGeometry>
        </mxCell>
        <mxCell id="H_4CKYOH0WxVHew7dZPI-24" value="&amp;lt;&amp;lt;Application&amp;gt;&amp;gt;&lt;div&gt;&lt;br&gt;&lt;/div&gt;&lt;div&gt;Node Red&lt;/div&gt;" style="shape=module;align=left;spacingLeft=20;align=center;verticalAlign=top;whiteSpace=wrap;html=1;" vertex="1" parent="1">
          <mxGeometry x="489" y="192" width="220" height="90" as="geometry" />
        </mxCell>
        <mxCell id="H_4CKYOH0WxVHew7dZPI-25" value="Use" style="endArrow=open;endSize=12;dashed=1;html=1;rounded=0;exitX=0.5;exitY=1;exitDx=0;exitDy=0;" edge="1" parent="1" source="H_4CKYOH0WxVHew7dZPI-24" target="H_4CKYOH0WxVHew7dZPI-6">
          <mxGeometry width="160" relative="1" as="geometry">
            <mxPoint x="581" y="538" as="sourcePoint" />
            <mxPoint x="741" y="538" as="targetPoint" />
          </mxGeometry>
        </mxCell>
        <mxCell id="H_4CKYOH0WxVHew7dZPI-26" value="" style="shape=image;verticalLabelPosition=bottom;labelBackgroundColor=default;verticalAlign=top;aspect=fixed;imageAspect=0;image=data:image/png,iVBORw0KGgoAAAANSUhEUgAAATYAAACjCAMAAAA3vsLfAAAAilBMVEX///+QAACMAADElZWJAACNAAD79PTr1tbmzs758PDcw8POoaGGAADz6OiZKSmRAADVrq6mVlbYtrbdwMC2cHCuX1/Km5uiQ0OfOjqwZ2eaIyO5eHjt3d3FkZHAh4fVsLCnTk6lSkq6fHyTDAyYHByhPj6cLS2dNDSpW1uvaWnNpaWUEhK9g4PDjIx/PO5cAAAHZklEQVR4nO2d6XqiMBRANd64RlGsWPd1qnX0/V9vdGSVQCAiN0DOv0qN4XwJZL2p1TQajUajyYOlaTUQsMwl9p3LY54BgKBw/+GziX3/UjQI0DoiFEgD20FqxnXAdPYE6mNsD+n4YtjKnrAvbBNpmCpQ1J7AFNtFcr4Jti0P8o1tIykThazdvU2wfSSjp0wNfQI9bCNJ6Ctm7e6tj+0kARPU1hoPWoBqulSusN2Lm/pdrYVS74MnZIFtRQi2Ij7YVkS0Fayj91raxvYioKFgHb3XUtU79TPl3qMP6Azbi4A5tiE+c2wvAgxsQXwMbC8ClKyj91qK7UWA1iaF1iaF1iaF1iaF1iZF1troY8pTAhLMSLW0Edha3ZYE3d4Z/N28KmmjcOvI56RpUU9chbTB9M3B7ObEHY6pjjb4fT83a8dbZbRlM093hWppoxmNWUxppbRlNR7bZ1XSRrdZZeg5JVQRbdD1kmy1U9Pyvv2cgKyINu82L3Um00m4uAkY1dFG/zjpNSQXyjF3CeovrY42Zz64KT1/eHRytCKV0UZudnLy067MydFFa5PRtqmMNgprO7kMtA0roI0SYPXTduI80LW2BM4A/qzGgWEPrU0s7TQMDa9pbQJgx+uFam2xEIO/X0VriwOiBte0trhbXEUlp7XF3OHFn0J/3FicLfsPrS0S8JW19sJ4bEGFDHsJJdVGvJWO5sCe3NSdKxHepEFzx5xvE6dz1ZLeYFnyrry71WJJve/SX+n0nBTcEbtbGbW55Sqwe4a6uxlNJiWOMrfxPCvjMOXB/l4nuDCfNJ0E2ycmwU87mKOSaWNO5+AU/CL4wyp0UuP7cruEUzDU2ZJ9g4gLbzMrRGkL15fHPFJkYbNn5sLbArOaXl4WY3q5H6Zl7g1+88vdnLILF9Jj7M8k5rsYixkiGA944pxtxV1O6yybpTP7giydieQWVuM2Po68oggZhPBYFWWhVjRm2Jt9ZcivwrB99ydnhVkWGMOrN7fxEfX2pfQSm6CAjVGcRahxBPeDE6cS3qK3oALdj/udZmo6/fE68BoqsrbAhnB6sj+MD4BB5EKZvTZ6Cq3N8tWag9OUH+WxA0R1bd0wXlen6T7dyNz51Mxlc73q2jiL0Zg3Dmn3PKn3USefvfWqa+PVOK8lsX9IImzg9ZxOeVTRYmpzu561CwNWX/i6m3kF3yqkNtjYV8fXTSBuzldeUUOKqW3I/2frSNjrXjytTait9gjMe9vVP6+ubNr+0+qNaPSgnNYWQ3dBPxint7Ta7nQnHytyZdb22Dr7oSjHxdY2Pv/+Lva3y2bc6kdsTN78/YS4YmsbAqV2pPT723Mwu5nLZiiJYT37qlpsbZtASaKPsAtksDdfN3evMn85lEmbzd3d/Bqc3+vvMq6pJdT2VGfsW/50LtkWuJJqe5hjJ/8Khv4pywJXTG2Oj03sw55C3d9SWWR4eEAhtTGnsSEM+Al/fQvtOVOEVdIGV+fqr/iBBVuvQbesZxboAUVGcniD4q61RLGMqa9P0Rmkb8Jxg0kxXl4VInYKJuECZhh5beBtuhcDhcOXZXIygeEiK5IGtycHrzGySOMNtqqHc5YgxbJvdxg9TZABWrSDhpIxT/GA9z0Qk75Q6U+4f1sCzqke777da61EY+Z0gHhvn2OUstVPTm7h6fwkME7eCJGnLK30TQlqeCMj4uPGEg+FFojWRKZnTon3XjRFFfUQ8/Pq0wth3SYH2eEM3/aEzii2wBHL/c+mGc6E6mc28ZajvdFDYmsv6fEx5unonZIz5mQBAMNFCrIeloWtr1VxMSKLrdvp7HMLpep90synOmndP3y5+WHcV4u7NrN25V9HUJGGD8wQ+ytqrba8/mXhau9FF+QvzqygtjqcAuPltWVvZLwsuaEj56LW5t0027/2m5bmanIynpEBH8/8rXNBa/NBKLcJ0Vy2u2ZvdVtf3faH1hYAjGR7O7S2V3F0nSDIuNYWgrDpUDQ4pLXxbh/Yrhd7bKbWFmGOAJ1Y7ahhIq0tVh3Ud3vLbC87L7VWaxO6+z+1R43jfDBwt9VobSkgWycDWlsKdOdKCrpzMqC1pcGNy9XjjmVqbXyIm4MBZyiTkpgsqwCWNvDGlqzpIITqp+Gilba1OG8Kg3b0oerVMB48bTdx5tQF76BN1hLnTlkQzyc1CrzgCFEbPbx5VCIimKfhUmKKM6gmuIcIF3YRKvLZyxSO+02Xc84athcB+EdWcw9rVn2BPb42LrorL4XWJoXWJoXWJoXWJoXWJoXWJoXq2gxsQXwMbC8C5tiC+Kg+lzBTspbSmTjnqAiDCKBAGtheBMgfTPVJsjq04nNgG+KDbUXIQsFaShbifCMTPtYFH4hdtqoGScMv5AfN5HyUDxMfyB8DKMSMFn+pFB6g+h5cm7wChScjmyOM8uBbIW/kW5xfVZgqU08hs1Pt8kAcgCIfWAaHZeXJ+ENxh1MBBQx61CAfjBGeAArKd+D5mGeQO27pfe4/fC7sOprH3myrgYBlFqA7pdFoNJpS8A8GR5ecm8d8cgAAAABJRU5ErkJggg==;clipPath=inset(0% 23.67% 1.9% 23.33%);" vertex="1" parent="1">
          <mxGeometry x="660" y="240" width="41.03" height="40" as="geometry" />
        </mxCell>
      </root>
    </mxGraphModel>
  </diagram>
  <diagram id="xfsLvgY5jhHBzrPdtCOW" name="Main Graph">
    <mxGraphModel dx="1426" dy="892" grid="1" gridSize="10" guides="1" tooltips="1" connect="1" arrows="1" fold="1" page="1" pageScale="1" pageWidth="827" pageHeight="1169" math="0" shadow="0">
      <root>
        <mxCell id="0" />
        <mxCell id="1" parent="0" />
        <mxCell id="3ABX6RGs9f28OTZEmQwU-1" value="classify" style="points=[[0.145,0.145,0],[0.5,0,0],[0.855,0.145,0],[1,0.5,0],[0.855,0.855,0],[0.5,1,0],[0.145,0.855,0],[0,0.5,0]];shape=mxgraph.bpmn.event;html=1;verticalLabelPosition=bottom;labelBackgroundColor=#ffffff;verticalAlign=top;align=center;perimeter=ellipsePerimeter;outlineConnect=0;aspect=fixed;outline=standard;symbol=general;" parent="1" vertex="1">
          <mxGeometry x="160" y="460" width="50" height="50" as="geometry" />
        </mxCell>
        <mxCell id="3ABX6RGs9f28OTZEmQwU-3" value="" style="curved=1;endArrow=classic;html=1;rounded=0;" parent="1" target="3ABX6RGs9f28OTZEmQwU-1" edge="1">
          <mxGeometry width="50" height="50" relative="1" as="geometry">
            <mxPoint x="70" y="580" as="sourcePoint" />
            <mxPoint x="140" y="500" as="targetPoint" />
            <Array as="points">
              <mxPoint x="90" y="500" />
            </Array>
          </mxGeometry>
        </mxCell>
        <mxCell id="3ABX6RGs9f28OTZEmQwU-4" value="start" style="text;html=1;align=center;verticalAlign=middle;resizable=0;points=[];autosize=1;strokeColor=none;fillColor=none;" parent="1" vertex="1">
          <mxGeometry x="50" y="500" width="50" height="30" as="geometry" />
        </mxCell>
        <mxCell id="3ABX6RGs9f28OTZEmQwU-6" value="" style="curved=1;endArrow=classic;html=1;rounded=0;exitX=0.5;exitY=0;exitDx=0;exitDy=0;exitPerimeter=0;entryX=0;entryY=0.5;entryDx=0;entryDy=0;entryPerimeter=0;" parent="1" source="3ABX6RGs9f28OTZEmQwU-1" target="FZmx0aLrvSzHzqw9jZK_-1" edge="1">
          <mxGeometry width="50" height="50" relative="1" as="geometry">
            <mxPoint x="200" y="390" as="sourcePoint" />
            <mxPoint x="322.7678049420497" y="276.43370031551717" as="targetPoint" />
            <Array as="points">
              <mxPoint x="200" y="340" />
            </Array>
          </mxGeometry>
        </mxCell>
        <mxCell id="3ABX6RGs9f28OTZEmQwU-8" value="" style="curved=1;endArrow=classic;html=1;rounded=0;" parent="1" source="3ABX6RGs9f28OTZEmQwU-1" target="FZmx0aLrvSzHzqw9jZK_-2" edge="1">
          <mxGeometry width="50" height="50" relative="1" as="geometry">
            <mxPoint x="240" y="520" as="sourcePoint" />
            <mxPoint x="462.01749123202603" y="434.83891715230254" as="targetPoint" />
            <Array as="points">
              <mxPoint x="310" y="500" />
            </Array>
          </mxGeometry>
        </mxCell>
        <mxCell id="3ABX6RGs9f28OTZEmQwU-10" value="" style="curved=1;endArrow=classic;html=1;rounded=0;" parent="1" source="3ABX6RGs9f28OTZEmQwU-1" target="FZmx0aLrvSzHzqw9jZK_-3" edge="1">
          <mxGeometry width="50" height="50" relative="1" as="geometry">
            <mxPoint x="250" y="660" as="sourcePoint" />
            <mxPoint x="455.9746227226656" y="593.7816455996492" as="targetPoint" />
            <Array as="points">
              <mxPoint x="380" y="520" />
              <mxPoint x="440" y="580" />
            </Array>
          </mxGeometry>
        </mxCell>
        <mxCell id="3ABX6RGs9f28OTZEmQwU-12" value="" style="curved=1;endArrow=classic;html=1;rounded=0;" parent="1" source="3ABX6RGs9f28OTZEmQwU-1" target="FZmx0aLrvSzHzqw9jZK_-4" edge="1">
          <mxGeometry width="50" height="50" relative="1" as="geometry">
            <mxPoint x="230" y="550" as="sourcePoint" />
            <mxPoint x="312.9238630036066" y="640.0863560432792" as="targetPoint" />
            <Array as="points">
              <mxPoint x="310" y="610" />
            </Array>
          </mxGeometry>
        </mxCell>
        <mxCell id="FZmx0aLrvSzHzqw9jZK_-1" value="smart_home_lights" style="points=[[0.145,0.145,0],[0.5,0,0],[0.855,0.145,0],[1,0.5,0],[0.855,0.855,0],[0.5,1,0],[0.145,0.855,0],[0,0.5,0]];shape=mxgraph.bpmn.event;html=1;verticalLabelPosition=bottom;labelBackgroundColor=#ffffff;verticalAlign=top;align=center;perimeter=ellipsePerimeter;outlineConnect=0;aspect=fixed;outline=standard;symbol=general;" parent="1" vertex="1">
          <mxGeometry x="320" y="250" width="50" height="50" as="geometry" />
        </mxCell>
        <mxCell id="FZmx0aLrvSzHzqw9jZK_-2" value="smart_home_security_cams" style="points=[[0.145,0.145,0],[0.5,0,0],[0.855,0.145,0],[1,0.5,0],[0.855,0.855,0],[0.5,1,0],[0.145,0.855,0],[0,0.5,0]];shape=mxgraph.bpmn.event;html=1;verticalLabelPosition=bottom;labelBackgroundColor=#ffffff;verticalAlign=top;align=center;perimeter=ellipsePerimeter;outlineConnect=0;aspect=fixed;outline=standard;symbol=general;" parent="1" vertex="1">
          <mxGeometry x="450" y="390" width="50" height="50" as="geometry" />
        </mxCell>
        <mxCell id="FZmx0aLrvSzHzqw9jZK_-3" value="shopping_list" style="points=[[0.145,0.145,0],[0.5,0,0],[0.855,0.145,0],[1,0.5,0],[0.855,0.855,0],[0.5,1,0],[0.145,0.855,0],[0,0.5,0]];shape=mxgraph.bpmn.event;html=1;verticalLabelPosition=bottom;labelBackgroundColor=#ffffff;verticalAlign=top;align=center;perimeter=ellipsePerimeter;outlineConnect=0;aspect=fixed;outline=standard;symbol=general;" parent="1" vertex="1">
          <mxGeometry x="440" y="580" width="50" height="50" as="geometry" />
        </mxCell>
        <mxCell id="FZmx0aLrvSzHzqw9jZK_-4" value="only_talking" style="points=[[0.145,0.145,0],[0.5,0,0],[0.855,0.145,0],[1,0.5,0],[0.855,0.855,0],[0.5,1,0],[0.145,0.855,0],[0,0.5,0]];shape=mxgraph.bpmn.event;html=1;verticalLabelPosition=bottom;labelBackgroundColor=#ffffff;verticalAlign=top;align=center;perimeter=ellipsePerimeter;outlineConnect=0;aspect=fixed;outline=standard;symbol=general;" parent="1" vertex="1">
          <mxGeometry x="290" y="640" width="50" height="50" as="geometry" />
        </mxCell>
        <mxCell id="FZmx0aLrvSzHzqw9jZK_-7" value="final_response" style="points=[[0.145,0.145,0],[0.5,0,0],[0.855,0.145,0],[1,0.5,0],[0.855,0.855,0],[0.5,1,0],[0.145,0.855,0],[0,0.5,0]];shape=mxgraph.bpmn.event;html=1;verticalLabelPosition=bottom;labelBackgroundColor=#ffffff;verticalAlign=top;align=center;perimeter=ellipsePerimeter;outlineConnect=0;aspect=fixed;outline=end;symbol=terminate2;" parent="1" vertex="1">
          <mxGeometry x="730" y="390" width="50" height="50" as="geometry" />
        </mxCell>
        <mxCell id="FZmx0aLrvSzHzqw9jZK_-8" value="" style="curved=1;endArrow=classic;html=1;rounded=0;entryX=0.145;entryY=0.145;entryDx=0;entryDy=0;entryPerimeter=0;" parent="1" source="FZmx0aLrvSzHzqw9jZK_-1" target="FZmx0aLrvSzHzqw9jZK_-7" edge="1">
          <mxGeometry width="50" height="50" relative="1" as="geometry">
            <mxPoint x="520" y="435" as="sourcePoint" />
            <mxPoint x="655" y="250" as="targetPoint" />
            <Array as="points">
              <mxPoint x="630" y="260" />
            </Array>
          </mxGeometry>
        </mxCell>
        <mxCell id="FZmx0aLrvSzHzqw9jZK_-9" value="" style="curved=1;endArrow=classic;html=1;rounded=0;exitX=1;exitY=0.5;exitDx=0;exitDy=0;exitPerimeter=0;" parent="1" source="FZmx0aLrvSzHzqw9jZK_-2" target="FZmx0aLrvSzHzqw9jZK_-7" edge="1">
          <mxGeometry width="50" height="50" relative="1" as="geometry">
            <mxPoint x="570" y="405" as="sourcePoint" />
            <mxPoint x="705" y="220" as="targetPoint" />
            <Array as="points">
              <mxPoint x="610" y="400" />
            </Array>
          </mxGeometry>
        </mxCell>
        <mxCell id="FZmx0aLrvSzHzqw9jZK_-10" value="" style="curved=1;endArrow=classic;html=1;rounded=0;" parent="1" source="FZmx0aLrvSzHzqw9jZK_-3" target="FZmx0aLrvSzHzqw9jZK_-7" edge="1">
          <mxGeometry width="50" height="50" relative="1" as="geometry">
            <mxPoint x="550" y="655" as="sourcePoint" />
            <mxPoint x="685" y="470" as="targetPoint" />
            <Array as="points">
              <mxPoint x="620" y="570" />
            </Array>
          </mxGeometry>
        </mxCell>
        <mxCell id="FZmx0aLrvSzHzqw9jZK_-11" value="" style="curved=1;endArrow=classic;html=1;rounded=0;" parent="1" source="FZmx0aLrvSzHzqw9jZK_-4" target="FZmx0aLrvSzHzqw9jZK_-7" edge="1">
          <mxGeometry width="50" height="50" relative="1" as="geometry">
            <mxPoint x="490" y="770" as="sourcePoint" />
            <mxPoint x="625" y="585" as="targetPoint" />
            <Array as="points">
              <mxPoint x="710" y="750" />
            </Array>
          </mxGeometry>
        </mxCell>
      </root>
    </mxGraphModel>
  </diagram>
</mxfile>
